<svg xmlns="http://www.w3.org/2000/svg" xmlns:xlink="http://www.w3.org/1999/xlink" preserveAspectRatio="xMinYMin meet" width="128" height="128"><style><![CDATA[.B{fill:#bc9862}.C{fill:#9f844d}.D{fill:#947f5c}.E{fill:#2c2213}.F{fill:#362a15}.G{fill:#911111}.H{fill:#695433}.I{fill:#5e720d}.J{fill:#bc1616}.K{fill:#735e39}.L{fill:#b4905a}.M{fill:#271e11}.N{fill:#3f2e18}.O{fill:#41311a}.P{fill:#118e6b}.Q{fill:#758e11}.R{fill:#315b8e}.S{fill:#b5b5b5}.T{fill:#898989}]]></style><defs><linearGradient xlink:href="#B" id="A" x1="17.307" y1="-24.784" x2="55.049" y2="106.078"/><linearGradient id="B" gradientUnits="userSpaceOnUse"><stop offset="0" stop-opacity=".8"/><stop offset="1" stop-opacity=".35"/></linearGradient><linearGradient xlink:href="#B" id="C" x1="18.136" y1="-23.782" x2="55.878" y2="107.079"/><linearGradient id="D" x1="8.514" y1="10.784" x2="63.981" y2="70.266" gradientUnits="userSpaceOnUse"><stop offset="0" stop-color="#75b54b"/><stop offset="1" stop-color="#75b54b" stop-opacity=".6"/></linearGradient></defs><g transform="matrix(8 0 0 8 0 -896)"><path d="M0 112h3v1H1v2H0z" class="B"/><path d="M3 112h1v1H3z" class="L"/><path d="M4 112h3v1H4z" class="B"/><path d="M7 112h3v1H7z" class="C"/><path d="M10 112h1v1h-1z" class="D"/><path d="M11 112h4v1h-4z" class="B"/><path d="M15 112h1v3h-1z" class="C"/><path d="M1 113h1v1H1z" class="E"/><path d="M2 113h4v1H2z" class="M"/><path d="M6 113h1v3H6z" class="Q"/><path d="M7 113h1v3H7z" class="I"/><path d="M8 113h2v1H8z" class="E"/><path d="M10 113h4v1h-4z" class="M"/><path d="M14 113h1v1h-1z" class="E"/><path d="M1 114h1v1H1z" class="J"/><path d="M2 114h1v1H2z" class="G"/><path d="M3 114h1v1H3z" class="E"/><path d="M4 114h1v5H4z" class="R"/><path d="M5 114h1v5H5z" fill="#2a4e7a"/><path d="M8 114h3v2h-1v-1H8z" class="F"/><path d="M11 114h1v5h-1z" class="Q"/><path d="M12 114h1v5h-1z" class="I"/><path d="M13 114h1v1h-1z" class="N"/><path d="M14 114h1v1h-1z" class="O"/><path d="M0 115h1v1H0z" class="D"/><path d="M1 115h1v1H1z" class="S"/><path d="M2 115h1v1H2z" class="T"/><path d="M3 115h1v4H3z" class="P"/><path d="M8 115h1v2H8z" class="J"/><path d="M9 115h1v2H9z" class="G"/><path d="M13 115h1v1h-1z" class="P"/><path d="M14 115h1v1h-1z" fill="#0c6b50"/><path d="M15 115h1v1h-1z" class="D"/><path d="M0 116h1v1H0z" class="B"/><path d="M1 116h1v3H1z" class="J"/><path d="M2 116h1v3H2z" class="G"/><path d="M6 116h1v2H6z" fill="#494949"/><path d="M7 116h1v2H7z" fill="#3f3f3f"/><path d="M10 116h1v1h-1z" class="N"/><path d="M13 116h1v1h-1z" class="S"/><path d="M14 116h1v1h-1z" class="T"/><path d="M15 116h1v1h-1z" class="B"/><path d="M0 117h1v1H0z" class="C"/><path d="M8 117h1v1H8z" class="O"/><path d="M9 117h1v2H9z" class="J"/><path d="M10 117h1v2h-1z" class="G"/><path d="M13 117h1v2h-1z" class="P"/><path d="M14 117h1v2h-1z" fill="#0c6b50"/><path d="M15 117h1v1h-1z" class="C"/><path d="M0 118h1v1H0z" class="B"/><path d="M6 118h1v1H6z" class="Q"/><path d="M7 118h1v1H7z" class="I"/><path d="M8 118h1v1H8z" class="N"/><path d="M15 118h1v1h-1z" class="B"/><path d="M0 119h2v1H0z" class="D"/><path d="M2 119h5v1H2z" class="H"/><path d="M7 119h3v1H7z" class="K"/><path d="M10 119h4v1h-4z" class="H"/><path d="M14 119h2v1h-2z" class="D"/><path d="M0 120h1v1H0z" class="B"/><path d="M1 120h4v1H1z" class="C"/><path d="M5 120h1v1H5z" class="B"/><path d="M6 120h2v1H6z" class="L"/><path d="M8 120h3v1H8z" class="C"/><path d="M11 120h1v1h-1z" class="K"/><path d="M12 120h1v1h-1z" class="B"/><path d="M13 120h3v3h-1v-2h-2zm-13 1h1v1H0z" class="C"/><path d="M1 121h6v1H2v1H1z" class="M"/><path d="M7 121h3v1H7z" class="E"/><path d="M10 121h2v1h-2z" class="M"/><path d="M12 121h1v6h-1z" class="R"/><path d="M13 121h1v6h-1z" fill="#2a4e7a"/><path d="M14 121h1v1h-1z" class="E"/><path d="M0 122h1v1H0z" class="B"/><path d="M2 122h2v1H2z" class="F"/><path d="M4 122h1v5H4z" class="J"/><path d="M5 122h1v5H5z" class="G"/><path d="M6 122h2v1H6z" class="N"/><path d="M8 122h1v1H8z" class="F"/><path d="M9 122h1v1H9z" fill="#a89b0a"/><path d="M10 122h1v1h-1z" fill="#897e08"/><path d="M11 122h1v1h-1z" class="E"/><path d="M14 122h1v1h-1z" class="F"/><path d="M0 123h1v1H0z" class="D"/><path d="M1 123h1v4H1z" fill="#873608"/><path d="M2 123h1v4H2z" fill="#773007"/><path d="M3 123h1v4H3z" fill="#632805"/><path d="M6 123h1v1H6z" class="F"/><path d="M7 123h1v1H7z" class="O"/><path d="M8 123h1v2H8z" class="I"/><path d="M9 123h1v2H9z" class="S"/><path d="M10 123h1v2h-1z" class="T"/><path d="M11 123h1v4h-1z" class="G"/><path d="M14 123h1v4h-1z" class="P"/><path d="M15 123h1v1h-1z" class="D"/><path d="M0 124h1v1H0z" class="B"/><path d="M6 124h1v3H6z" class="R"/><path d="M7 124h1v1H7z" class="F"/><path d="M15 124h1v1h-1z" class="B"/><path d="M0 125h1v1H0z" class="L"/><path d="M7 125h1v2H7z" class="I"/><path d="M8 125h1v1H8z" class="F"/><path d="M9 125h1v2H9z" fill="#a89b0a"/><path d="M10 125h1v2h-1z" fill="#897e08"/><path d="M15 125h1v1h-1z" class="L"/><path d="M0 126h1v1H0z" class="B"/><path d="M8 126h1v1H8z" class="O"/><path d="M15 126h1v1h-1z" class="B"/><path d="M0 127h3v1H0z" class="K"/><path d="M3 127h1v1H3z" fill="#7c623e"/><path d="M4 127h2v1H4z" class="H"/><path d="M6 127h1v1H6z" fill="#7c623e"/><path d="M7 127h1v1H7z" class="H"/><path d="M8 127h3v1H8z" class="K"/><path d="M11 127h1v1h-1z" class="H"/><path d="M12 127h1v1h-1z" fill="#7b6643"/><path d="M13 127h2v1h-2z" class="H"/><path d="M15 127h1v1h-1z" class="K"/><path d="M1 121h14v6H1zm0-8h14v6H1z" opacity=".33" fill-opacity=".986" fill="#2b2220"/><g transform="matrix(.203284 0 0 .203284 1.080334 113.05285)"><path d="M38.887 44.94c-.974-.802-2.23-2.138-3.77-4.008-2.106 2.672-4.086 4.6-5.94 5.78-2.326 1.425-5.295 2.138-8.9 2.138-4.243 0-7.762-1.125-10.56-3.374-2.954-2.36-4.43-5.49-4.43-9.386 0-3.74 1.477-6.88 4.43-9.42 2.64-2.25 6.19-3.374 10.654-3.374 2.294 0 4.3.334 5.987 1.002 1.98.735 3.645 1.737 4.997 3.006 1.257 1.136 2.514 2.472 3.77 4.008 2.106-2.672 4.085-4.6 5.94-5.78 2.326-1.425 5.295-2.138 8.9-2.138 4.243 0 7.762 1.125 10.56 3.374 2.954 2.36 4.43 5.49 4.43 9.386 0 3.74-1.477 6.88-4.43 9.42-2.64 2.25-6.19 3.374-10.654 3.374-2.294 0-4.3-.334-5.987-1.002-1.697-.6-3.363-1.603-4.997-3.006m-19.14-.468c5.185 0 9.334-2.672 12.445-8.017-3.99-5.834-8.14-8.752-12.445-8.752-3.143 0-5.515.802-7.118 2.405-1.728 1.715-2.593 3.708-2.593 5.98 0 2.494.864 4.51 2.593 6.046 1.76 1.56 4.133 2.338 7.118 2.338M50.483 27.77c-4.683 0-8.83 2.672-12.445 8.017 3.96 5.835 8.108 8.752 12.445 8.752 3.143 0 5.515-.802 7.118-2.405 1.728-1.715 2.593-3.708 2.593-5.98 0-2.494-.864-4.51-2.593-6.046-1.76-1.56-4.133-2.338-7.118-2.338" opacity=".5" fill="url(#A)"/><path d="M39.715 45.942c-.974-.802-2.23-2.138-3.77-4.008-2.106 2.672-4.086 4.6-5.94 5.78-2.326 1.425-5.295 2.138-8.9 2.138-4.243 0-7.762-1.125-10.56-3.374-2.954-2.36-4.43-5.49-4.43-9.386 0-3.74 1.477-6.88 4.43-9.42 2.64-2.25 6.19-3.374 10.654-3.374 2.294 0 4.3.334 5.987 1.002 1.98.735 3.645 1.737 4.997 3.006 1.257 1.136 2.514 2.472 3.77 4.008 2.106-2.672 4.085-4.6 5.94-5.78 2.326-1.425 5.295-2.138 8.9-2.138 4.243 0 7.762 1.125 10.56 3.374 2.954 2.36 4.43 5.49 4.43 9.386 0 3.74-1.477 6.88-4.43 9.42-2.64 2.25-6.19 3.374-10.654 3.374-2.294 0-4.3-.334-5.987-1.002-1.697-.6-3.363-1.603-4.997-3.006m-19.14-.468c5.185 0 9.334-2.672 12.445-8.017-3.99-5.834-8.14-8.752-12.445-8.752-3.143 0-5.515.802-7.118 2.405-1.728 1.715-2.593 3.708-2.593 5.98 0 2.494.864 4.51 2.593 6.046 1.76 1.56 4.133 2.338 7.118 2.338m30.736-16.702c-4.683 0-8.83 2.672-12.445 8.017 3.96 5.835 8.108 8.752 12.445 8.752 3.143 0 5.515-.802 7.118-2.405 1.728-1.715 2.593-3.708 2.593-5.98 0-2.494-.864-4.51-2.593-6.046-1.76-1.56-4.133-2.338-7.118-2.338" opacity=".5" fill="url(#C)"/><path d="M37.905 42.952c-.974-.802-2.23-2.138-3.77-4.008-2.106 2.672-4.086 4.6-5.94 5.78-2.326 1.425-5.295 2.138-8.9 2.138-4.243 0-7.762-1.125-10.56-3.374-2.954-2.36-4.43-5.49-4.43-9.386 0-3.74 1.477-6.88 4.43-9.42 2.64-2.25 6.19-3.374 10.654-3.374 2.294 0 4.3.334 5.987 1.002 1.98.735 3.645 1.737 4.997 3.006 1.257 1.136 2.514 2.472 3.77 4.008 2.106-2.672 4.085-4.6 5.94-5.78 2.326-1.425 5.295-2.138 8.9-2.138 4.243 0 7.762 1.125 10.56 3.374 2.954 2.36 4.43 5.49 4.43 9.386 0 3.74-1.477 6.88-4.43 9.42-2.64 2.25-6.19 3.374-10.654 3.374-2.294 0-4.3-.334-5.987-1.002-1.697-.6-3.363-1.603-4.997-3.006m-19.14-.468c5.185 0 9.334-2.672 12.445-8.017-3.99-5.834-8.14-8.752-12.445-8.752-3.143 0-5.515.802-7.118 2.405-1.728 1.715-2.593 3.708-2.593 5.98 0 2.494.864 4.51 2.593 6.046 1.76 1.56 4.133 2.338 7.118 2.338M49.5 25.782c-4.683 0-8.83 2.672-12.445 8.017 3.96 5.835 8.108 8.752 12.445 8.752 3.143 0 5.515-.802 7.118-2.405 1.728-1.715 2.593-3.708 2.593-5.98 0-2.494-.864-4.51-2.593-6.046-1.76-1.56-4.133-2.338-7.118-2.338" fill="url(#D)"/><g fill="#cf0"><path d="M19.4 21.167c-4.463 0-8.027 1.15-10.667 3.4-2.954 2.54-4.433 5.66-4.433 9.4 0 3.897 1.48 7.04 4.433 9.4-1.623-2.044-2.433-4.512-2.433-7.4 0-3.74 1.48-6.86 4.433-9.4 2.64-2.25 6.204-3.4 10.667-3.4 2.294 0 4.303.365 6 1.033 1.98.735 3.615 1.73 4.967 3 .068.062.132.137.2.2-.732-.797-1.468-1.54-2.2-2.2-1.35-1.27-2.987-2.265-4.967-3-1.697-.668-3.706-1.033-6-1.033zm29.6.1c-3.614 0-6.574.74-8.9 2.167-1.818 1.157-3.923 3.29-5.983 5.883a41.96 41.96 0 0 1 1.867 2.133c2.106-2.672 4.262-4.836 6.117-6.017 2.326-1.425 5.286-2.167 8.9-2.167 4.243 0 7.77 1.15 10.567 3.4-.57-.722-1.228-1.383-2-2-2.797-2.25-6.324-3.4-10.567-3.4zm8.867 8.1c.91 1.305 1.367 2.858 1.367 4.667 0 2.27-.872 4.285-2.6 6-1.603 1.603-3.957 2.4-7.1 2.4-2.654 0-5.32-1.032-7.833-3.217 3.137 3.51 6.47 5.217 9.833 5.217 3.143 0 5.497-.797 7.1-2.4 1.728-1.715 2.6-3.73 2.6-6 0-2.494-.872-4.497-2.6-6.033-.25-.22-.493-.444-.767-.633zm-26.633 4.967c-3.11 5.345-7.248 8.033-12.433 8.033-2.58 0-4.543-.352-6.208-1.517.35.506.6.752 1.075 1.183 1.76 1.56 4.148 2.333 7.133 2.333 5.185 0 9.322-2.69 12.433-8.033zm4.933 6.5c-.04.052-.092.082-.133.133.687.744 1.307 1.36 1.833 1.8-.53-.58-1.078-1.178-1.7-1.933z" opacity=".3"/><path d="M19.73 21.547c-4.463 0-8.027 1.15-10.667 3.4-2.954 2.54-4.433 5.66-4.433 9.4 0 3.897 1.48 7.04 4.433 9.4.043.034.1.066.133.1-2.24-2.228-3.367-5.04-3.367-8.433 0-3.74 1.48-6.86 4.433-9.4 2.64-2.25 6.204-3.4 10.667-3.4 2.294 0 4.303.365 6 1.033 1.87.694 3.424 1.628 4.733 2.8-.314-.31-.652-.583-.967-.867-1.35-1.27-2.987-2.265-4.967-3-1.697-.668-3.706-1.033-6-1.033zm29.6.1c-3.614 0-6.574.74-8.9 2.167-1.813 1.154-3.963 3.236-6.017 5.817.356.403.71.8 1.067 1.233 2.106-2.672 4.296-4.803 6.15-5.983 2.326-1.425 5.286-2.167 8.9-2.167 4.224 0 7.742 1.137 10.533 3.367-.36-.368-.746-.697-1.167-1.033-2.797-2.25-6.324-3.4-10.567-3.4zm8.233 7.333c1.323 1.45 2 3.25 2 5.433 0 2.27-.872 4.285-2.6 6-1.603 1.603-3.957 2.4-7.1 2.4-2.406 0-4.776-.904-7.067-2.7 2.67 2.484 5.437 3.767 8.267 3.767 3.143 0 5.497-.797 7.1-2.4 1.728-1.715 2.6-3.73 2.6-6 0-2.494-.872-4.497-2.6-6.033-.186-.164-.4-.32-.6-.467zm-26 5.733c-3.11 5.345-7.248 8.033-12.433 8.033-2.612 0-4.76-.607-6.433-1.8.166.176.314.368.5.533 1.76 1.56 4.148 2.333 7.133 2.333 5.185 0 9.322-2.69 12.433-8.033zm4.133 5.567l-.133.167c1.04 1.19 1.975 2.17 2.7 2.767.062.054.137.08.2.133-.792-.78-1.706-1.78-2.767-3.067z" opacity=".6"/></g></g></g></svg>